<?xml version="1.0" encoding="UTF-8"?>
<svg id="Layer_1" data-name="Layer 1" xmlns="http://www.w3.org/2000/svg" version="1.1" viewBox="0 0 200 200">
  <defs>
    <style>
      .cls-1 {
        fill: #84acb3;
      }

      .cls-1, .cls-2 {
        stroke-width: 0px;
      }

      .cls-2 {
        fill: #f7931e;
      }
    </style>
  </defs>
  <g>
    <path class="cls-2" d="M50.6,135.3c14.3,19,39.3,28.3,63.5,21.3,23.9-6.9,40.1-27.6,42.4-50.9-14,6.6-31.1,12.9-49.5,18.2-20.3,5.9-40.1,9.8-56.4,11.4Z"/>
    <path class="cls-2" d="M151.2,74.9c-1.6-3.4-3.5-6.6-5.7-9.6-14.2-19.5-39.5-29.1-64.1-22.1s-41.3,29.2-42.6,53.6c-.2,3.7,0,7.5.5,11.2.4,2.7,1,5.4,1.7,8.1.9,3.3,2.1,6.4,3.6,9.4.4,0,.8,0,1.2,0,16.4-1.2,37.1-5.2,58.3-11.4,19.8-5.7,38.2-12.6,52.3-19.7-.3-3.6-1-7.2-2-10.8-.9-3-2-5.9-3.3-8.7Z"/>
  </g>
  <path class="cls-1" d="M155.9,64.3c-3.3.2-6.8.5-10.4.9,2.2,3,4.1,6.2,5.7,9.6,1.1-.1,2.2-.2,3.3-.3,18.1-1.3,24.5,1.3,25.5,2.5-.3,1.5-4.3,7.2-20.3,15.7-1,.5-2.1,1.1-3.2,1.6-14.1,7.1-32.5,14.1-52.3,19.7-21.3,6.1-42,10.2-58.3,11.4-.4,0-.8,0-1.2,0-17.1,1.1-23.3-1.4-24.3-2.5.3-1.5,4.1-6.9,19-15-.5-3.8-.7-7.5-.5-11.2-1.7.9-3.3,1.7-4.9,2.6-18,9.9-25.7,18.5-23.4,26.4,2.3,7.9,13.4,11.2,33.9,9.9,2-.1,4.1-.3,6.2-.5,16.3-1.6,36.1-5.5,56.4-11.4,18.4-5.3,35.5-11.6,49.5-18.2,3.5-1.7,6.8-3.3,9.9-5,18-9.9,25.7-18.5,23.4-26.4-2.3-7.9-13.4-11.2-33.9-9.9Z"/>
</svg>